<?xml version="1.0" encoding="iso-8859-1"?>
<svg height="512pt" viewBox="0 -13 512.00014 512" width="512pt" 
  xmlns="http://www.w3.org/2000/svg">
  <path d="m254.933594 3.003906c11.175781 32.699219 54.003906 40.25 75.691406 13.347656.554688-.695312 1.671875-.285156 1.65625.601563-.683594 34.546875 36.980469 56.292969 66.558594 38.429687.761718-.460937 1.671875.304688 1.351562 1.132813-12.457031 32.234375 15.5 65.546875 49.402344 58.878906.875-.171875 1.46875.855469.882812 1.527344-22.726562 26.023437-7.855468 66.894531 26.289063 72.222656.875.136719 1.082031 1.304688.304687 1.734375-30.261718 16.683594-30.261718 60.175782 0 76.859375.777344.429688.570313 1.601563-.304687 1.738281-34.144531 5.328126-49.015625 46.195313-26.289063 72.222657.585938.667969-.007812 1.699219-.882812 1.527343-33.902344-6.671874-61.859375 26.644532-49.402344 58.875.320313.828126-.589844 1.59375-1.351562 1.132813-29.578125-17.863281-67.242188 3.882813-66.558594 38.429687.015625.890626-1.101562 1.296876-1.65625.605469-21.6875-26.90625-64.515625-19.351562-75.691406 13.34375-.289063.839844-1.476563.839844-1.765625 0-11.175781-32.695312-54.003907-40.25-75.691407-13.34375-.554687.691407-1.671874.285157-1.65625-.605469.683594-34.546874-36.980468-56.292968-66.558593-38.429687-.761719.460937-1.671875-.304687-1.351563-1.132813 12.453125-32.230468-15.5-65.546874-49.402344-58.875-.875.167969-1.46875-.859374-.882812-1.527343 22.726562-26.027344 7.855469-66.894531-26.289062-72.222657-.875-.136718-1.082032-1.308593-.304688-1.738281 30.261719-16.683593 30.261719-60.175781 0-76.859375-.777344-.429687-.570312-1.597656.304688-1.734375 34.144531-5.328125 49.015624-46.199219 26.289062-72.222656-.585938-.671875.007812-1.699219.882812-1.527344 33.902344 6.667969 61.859376-26.644531 49.402344-58.878906-.320312-.828125.589844-1.59375 1.351563-1.132813 29.578125 17.863282 67.242187-3.882812 66.558593-38.429687-.015624-.886719 1.101563-1.296875 1.65625-.601563 21.6875 26.902344 64.515626 19.347657 75.691407-13.347656.285156-.839844 1.476562-.839844 1.765625 0zm0 0" fill="#fed370"/>
  <path d="m473.453125 274.308594h.007813zm-.015625-.007813c.003906 0 .007812.003907.011719.003907-.003907 0-.007813-.003907-.011719-.003907zm0 0" fill="#fc5921"/>
  <path d="m254.050781 395.59375c-91.691406 0-166.285156-74.59375-166.285156-166.285156 0-91.6875 74.59375-166.28125 166.285156-166.28125 91.6875 0 166.285157 74.59375 166.285157 166.28125 0 91.691406-74.597657 166.285156-166.285157 166.285156zm0 0" fill="#fda736"/>
  <path d="m404.28125 229.308594c0 82.972656-67.261719 150.230468-150.230469 150.230468-8.839843 0-17.511719-.757812-25.929687-2.230468-5.839844-1.019532-11.570313-2.367188-17.160156-4.046875-27.269532-8.140625-51.289063-23.832031-69.640626-44.640625-3.320312-3.769532-6.449218-7.699219-9.378906-11.792969-17.703125-24.648437-28.121094-54.867187-28.121094-87.519531 0-82.96875 67.257813-150.230469 150.230469-150.230469 9.390625 0 18.578125.863281 27.5 2.523437 5.800781 1.058594 11.480469 2.46875 17.027344 4.179688 24.171875 7.488281 45.730469 20.917969 62.960937 38.578125 3.5 3.582031 6.820313 7.339844 9.949219 11.261719 20.523438 25.679687 32.792969 58.25 32.792969 93.6875zm0 0" fill="#fd8f07"/>
  <path d="m404.28125 229.308594c0 82.972656-67.265625 150.226562-150.230469 150.226562-6.722656 0-13.347656-.445312-19.835937-1.308594 73.582031-9.703124 130.367187-72.679687 130.367187-148.917968 0-76.230469-56.785156-139.203125-130.367187-148.910156 6.488281-.863282 13.113281-1.308594 19.835937-1.308594 82.964844 0 150.230469 67.253906 150.230469 150.21875zm0 0" fill="#fd7504"/>
  <path d="m389.242188 15c-.011719 0-.023438 0-.03125 0h-.117188c-4.144531-.015625-7.488281-3.390625-7.46875-7.53125.015625-4.128906 3.371094-7.46875 7.496094-7.46875h.03125.117187c4.144531.015625 7.488281 3.390625 7.46875 7.53125-.015625 4.132812-3.371093 7.46875-7.496093 7.46875zm0 0" fill="#fd7504"/>
  <path d="m477.613281 429.78125h-.121093c-4.140626 0-7.5-3.355469-7.5-7.5 0-4.140625 3.359374-7.5 7.5-7.5h.121093c4.140625 0 7.5 3.359375 7.5 7.5 0 4.144531-3.359375 7.5-7.5 7.5zm0 0" fill="#fc5921"/>
  <path d="m446.6875 429.78125c-.011719 0-.019531 0-.03125 0h-.117188c-4.144531-.015625-7.484374-3.386719-7.46875-7.53125.015626-4.132812 3.371094-7.46875 7.496094-7.46875h.035156.117188c4.140625.019531 7.484375 3.390625 7.46875 7.53125-.019531 4.132812-3.371094 7.46875-7.5 7.46875zm0 0" fill="#fc5921"/>
  <path d="m201.71875 486.988281h-.117188c-4.144531 0-7.5-3.359375-7.5-7.5 0-4.144531 3.355469-7.5 7.5-7.5h.117188c4.144531 0 7.5 3.355469 7.5 7.5 0 4.140625-3.359375 7.5-7.5 7.5zm0 0" fill="#fc5921"/>
  <path d="m7.617188 139.007812c-.007813 0-.019532 0-.03125 0h-.117188c-4.140625-.015624-7.484375-3.390624-7.46875-7.53125.0195312-4.132812 3.371094-7.46875 7.5-7.46875h.03125.117188c4.144531.015626 7.484374 3.390626 7.46875 7.53125-.015626 4.132813-3.371094 7.46875-7.5 7.46875zm0 0" fill="#fed370"/>
  <path d="m43.859375 27.324219h-.117187c-4.140626 0-7.5-3.355469-7.5-7.5 0-4.140625 3.359374-7.5 7.5-7.5h.117187c4.144531 0 7.5 3.359375 7.5 7.5 0 4.144531-3.355469 7.5-7.5 7.5zm0 0" fill="#fda736"/>
  <g fill="#fc5921">
    <path d="m68.027344 15.167969c-.007813 0-.019532 0-.03125 0h-.117188c-4.140625-.019531-7.484375-3.390625-7.46875-7.53125.019532-4.132813 3.371094-7.46875 7.5-7.46875h.03125.117188c4.144531.015625 7.488281 3.386719 7.46875 7.53125-.015625 4.128906-3.371094 7.46875-7.5 7.46875zm0 0"/>
    <path d="m30.582031 432.4375c-.011719 0-.023437 0-.035156 0-4.144531-.019531-7.484375-3.394531-7.464844-7.539062l.011719-2.652344c.019531-4.144532 3.410156-7.488282 7.539062-7.464844 4.140626.019531 7.480469 3.394531 7.460938 7.535156l-.011719 2.65625c-.019531 4.128906-3.375 7.464844-7.5 7.464844zm0 0"/>
    <path d="m30.5 459.453125c-.015625 0-.023438 0-.039062 0-4.140626-.019531-7.480469-3.394531-7.460938-7.535156l.011719-2.65625c.019531-4.128907 3.375-7.460938 7.5-7.460938h.035156c4.140625.019531 7.484375 3.390625 7.464844 7.535157l-.011719 2.652343c-.019531 4.128907-3.375 7.464844-7.5 7.464844zm0 0"/>
    <path d="m45.382812 444.664062c-.011718 0-.023437 0-.035156 0l-2.65625-.011718c-4.140625-.019532-7.480468-3.394532-7.464844-7.535156.023438-4.132813 3.375-7.464844 7.5-7.464844h.039063l2.652344.011718c4.140625.019532 7.484375 3.394532 7.464843 7.535157-.019531 4.132812-3.375 7.464843-7.5 7.464843zm0 0"/>
    <path d="m18.367188 444.582031c-.015626 0-.023438 0-.039063 0l-2.652344-.011719c-4.144531-.019531-7.484375-3.394531-7.464843-7.539062.019531-4.128906 3.375-7.460938 7.5-7.460938h.035156l2.65625.011719c4.140625.019531 7.480468 3.394531 7.460937 7.535157-.015625 4.128906-3.371093 7.464843-7.496093 7.464843zm0 0"/>
    <path d="m489.699219 28.28125c-.011719 0-.023438 0-.035157 0-4.140624-.019531-7.484374-3.394531-7.464843-7.535156l.015625-2.65625c.019531-4.128906 3.371094-7.460938 7.496094-7.460938h.039062c4.140625.019532 7.480469 3.390625 7.464844 7.535156l-.015625 2.652344c-.019531 4.128906-3.375 7.464844-7.5 7.464844zm0 0"/>
    <path d="m489.617188 55.296875c-.011719 0-.023438 0-.035157 0-4.144531-.019531-7.484375-3.394531-7.464843-7.535156l.011718-2.65625c.019532-4.128907 3.375-7.460938 7.5-7.460938h.039063c4.140625.019531 7.480469 3.390625 7.460937 7.535157l-.011718 2.652343c-.019532 4.128907-3.375 7.464844-7.5 7.464844zm0 0"/>
    <path d="m504.5 40.511719c-.011719 0-.023438 0-.035156 0l-2.65625-.015625c-4.140625-.019532-7.480469-3.394532-7.460938-7.535156.019532-4.128907 3.371094-7.464844 7.496094-7.464844h.039062l2.652344.015625c4.144532.019531 7.484375 3.390625 7.464844 7.535156-.019531 4.128906-3.375 7.464844-7.5 7.464844zm0 0"/>
    <path d="m477.484375 40.425781c-.011719 0-.023437 0-.039063 0l-2.652343-.011719c-4.140625-.019531-7.480469-3.394531-7.464844-7.535156.023437-4.128906 3.375-7.464844 7.5-7.464844h.039063l2.652343.011719c4.140625.019531 7.484375 3.394531 7.464844 7.535157-.019531 4.132812-3.375 7.464843-7.5 7.464843zm0 0"/>
  </g>
  <path d="m99.996094 442.28125c-.011719 0-.023438 0-.035156 0-4.144532-.019531-7.484376-3.394531-7.464844-7.535156l.011718-2.652344c.019532-4.144531 3.382813-7.46875 7.535157-7.464844 4.144531.019532 7.484375 3.394532 7.464843 7.535156l-.011718 2.652344c-.019532 4.128906-3.375 7.464844-7.5 7.464844zm0 0" fill="#fed370"/>
  <path d="m99.914062 469.296875c-.015624 0-.023437 0-.039062 0-4.140625-.019531-7.480469-3.394531-7.464844-7.535156l.015625-2.652344c.019531-4.132813 3.375-7.464844 7.5-7.464844h.035157c4.140624.019531 7.484374 3.394531 7.464843 7.535157l-.015625 2.65625c-.015625 4.128906-3.371094 7.460937-7.496094 7.460937zm0 0" fill="#fed370"/>
  <path d="m114.796875 454.511719c-.015625 0-.023437 0-.039063 0l-2.652343-.011719c-4.140625-.023438-7.484375-3.394531-7.464844-7.539062.019531-4.128907 3.375-7.460938 7.5-7.460938h.035156l2.65625.011719c4.140625.019531 7.480469 3.394531 7.464844 7.535156-.023437 4.128906-3.375 7.464844-7.5 7.464844zm0 0" fill="#fed370"/>
  <path d="m87.78125 454.429688c-.015625 0-.023438 0-.039062 0l-2.652344-.015626c-4.144532-.019531-7.484375-3.394531-7.464844-7.535156.019531-4.128906 3.375-7.464844 7.5-7.464844h.035156l2.65625.015626c4.140625.019531 7.480469 3.390624 7.460938 7.535156-.015625 4.128906-3.371094 7.464844-7.496094 7.464844zm0 0" fill="#fed370"/>
  <path d="m259.71875 210.261719-117.898438 117.910156c-.160156.15625-.332031.308594-.5.449219-3.320312-3.769532-6.449218-7.699219-9.378906-11.792969l117.179688-117.167969c2.929687-2.929687 7.667968-2.929687 10.597656 0 2.929688 2.917969 2.929688 7.667969 0 10.601563zm0 0" fill="#fc5921"/>
  <path d="m246.617188 299.085938c-1.921876 0-3.839844-.734376-5.304688-2.199219-2.929688-2.929688-2.929688-7.675781 0-10.605469l28.578125-28.578125c2.929687-2.929687 7.679687-2.929687 10.609375 0 2.925781 2.929687 2.925781 7.679687 0 10.605469l-28.578125 28.578125c-1.464844 1.464843-3.386719 2.199219-5.304687 2.199219zm0 0" fill="#fc5921"/>
  <path d="m298.578125 85.78125-109.308594 109.296875c-1.460937 1.472656-3.378906 2.203125-5.300781 2.203125-1.917969 0-3.839844-.730469-5.296875-2.203125-2.933594-2.929687-2.933594-7.679687 0-10.597656l102.878906-102.878907c5.800781 1.058594 11.480469 2.46875 17.027344 4.179688zm0 0" fill="#fc5921"/>
  <path d="m303.589844 307.351562c-1.921875 0-3.839844-.730468-5.304688-2.195312-2.929687-2.929688-2.929687-7.679688 0-10.605469l11.667969-11.667969c2.929687-2.929687 7.679687-2.929687 10.605469 0 2.929687 2.929688 2.929687 7.675782 0 10.605469l-11.667969 11.667969c-1.460937 1.464844-3.382813 2.195312-5.300781 2.195312zm0 0" fill="#fc5921"/>
  <path d="m336.257812 274.6875c-1.921874 0-3.839843-.734375-5.304687-2.199219-2.929687-2.929687-2.929687-7.675781 0-10.605469l35.507813-35.507812c2.929687-2.929688 7.675781-2.929688 10.605468 0 2.929688 2.929688 2.929688 7.679688 0 10.605469l-35.507812 35.507812c-1.464844 1.464844-3.382813 2.199219-5.300782 2.199219zm0 0" fill="#fc5921"/>
  <path d="m371.488281 135.621094-55.578125 55.578125c-1.460937 1.472656-3.378906 2.199219-5.300781 2.199219-1.917969 0-3.839844-.726563-5.308594-2.199219-2.921875-2.929688-2.921875-7.667969 0-10.597657l56.238281-56.242187c3.5 3.582031 6.820313 7.339844 9.949219 11.261719zm0 0" fill="#fc5921"/>
  <path d="m241.398438 364.03125-13.277344 13.277344c-5.839844-1.019532-11.570313-2.367188-17.160156-4.046875l19.828124-19.839844c2.929688-2.933594 7.679688-2.933594 10.609376 0 2.929687 2.929687 2.929687 7.679687 0 10.609375zm0 0" fill="#fc5921"/>
</svg>
